<svg width="24" height="24" viewBox="0 0 24 24" fill="none" xmlns="http://www.w3.org/2000/svg">
<path d="M17.9194 16.0724C17.452 16.0724 17.0406 16.256 16.6942 16.514L14.4346 14.71C14.7694 14.1498 14.974 13.5058 14.974 12.8084C14.974 12.0458 14.7414 11.3392 14.351 10.7464L16.106 9.198C16.4944 9.4794 16.943 9.6794 17.4568 9.6794C18.7586 9.6794 19.8116 8.6214 19.8116 7.322C19.8116 6.0226 18.7586 4.967 17.4568 4.967C16.1596 4.967 15.1018 6.025 15.1018 7.322C15.1018 7.7312 15.2366 8.0984 15.4202 8.4356L13.6582 9.9862C13.0048 9.4212 12.1656 9.0702 11.2334 9.0702C10.8824 9.0702 10.5454 9.1354 10.2198 9.2282L9.0342 6.541C9.3132 6.2712 9.4876 5.8992 9.4876 5.481C9.4876 4.665 8.825 4 8.0068 4C7.1886 4 6.5306 4.6648 6.5306 5.4808C6.53052 5.67528 6.56877 5.86788 6.64316 6.04757C6.71755 6.22727 6.82662 6.39054 6.96414 6.52806C7.10166 6.66558 7.26493 6.77465 7.44463 6.84904C7.62432 6.92343 7.81692 6.96168 8.0114 6.9616C8.0416 6.9616 8.0648 6.9476 8.095 6.9456L9.2806 9.6376C8.216 10.2954 7.4952 11.4646 7.4952 12.8084C7.4952 12.8176 7.4976 12.8294 7.4976 12.8386L6.2678 13.02C5.8958 11.96 4.9102 11.188 3.7246 11.188C2.2228 11.188 1 12.4108 1 13.915C1 15.4168 2.2204 16.6396 3.7246 16.6396C5.1846 16.6396 6.3586 15.4772 6.4236 14.0358L7.6626 13.8522C8.0066 15.0308 8.9134 15.9584 10.0758 16.342L9.6806 18.5226C8.997 18.6526 8.467 19.227 8.467 19.95C8.467 20.7682 9.1272 21.4308 9.9456 21.4308C10.764 21.4308 11.4264 20.7682 11.4264 19.95C11.4264 19.413 11.1242 18.9596 10.6942 18.7016L11.087 16.528C11.1358 16.5302 11.1846 16.5442 11.2358 16.5442C12.2308 16.5442 13.1282 16.149 13.7998 15.5166L16.0318 17.302C15.9108 17.5624 15.8388 17.8484 15.8388 18.153C15.8388 19.3014 16.7688 20.2336 17.9216 20.2336C19.0656 20.2336 20 19.3036 20 18.153C19.9976 17.007 19.0654 16.0724 17.9194 16.0724Z" fill="#F1A21E"/>
</svg>
