<svg width="40" height="40" viewBox="0 0 40 40" fill="none" xmlns="http://www.w3.org/2000/svg">
<rect width="40" height="40" rx="20" fill="#1C1E24"/>
<path fill-rule="evenodd" clip-rule="evenodd" d="M20 11C17.5556 11 17.2496 11.0102 16.2896 11.054C15.3314 11.0978 14.6768 11.2502 14.1044 11.4728C13.5044 11.6984 12.9602 12.0524 12.5102 12.5108C12.0525 12.9603 11.6983 13.5041 11.4722 14.1044C11.2508 14.6768 11.0978 15.332 11.054 16.2902C11.0108 17.2496 11 17.555 11 20C11 22.445 11.0102 22.7504 11.054 23.7104C11.0978 24.6686 11.2502 25.3232 11.4728 25.8956C11.6984 26.4956 12.0524 27.0398 12.5108 27.4898C12.9603 27.9475 13.5041 28.3017 14.1044 28.5278C14.6768 28.7498 15.3314 28.9022 16.2896 28.946C17.2496 28.9898 17.5556 29 20 29C22.4444 29 22.7504 28.9898 23.7104 28.946C24.6686 28.9022 25.3232 28.7498 25.8956 28.5272C26.4956 28.3016 27.0398 27.9476 27.4898 27.4892C27.9475 27.0397 28.3017 26.4959 28.5278 25.8956C28.7498 25.3232 28.9022 24.6686 28.946 23.7104C28.9898 22.7504 29 22.4444 29 20C29 17.5556 28.9898 17.2496 28.946 16.2896C28.9022 15.3314 28.7498 14.6768 28.5272 14.1044C28.3012 13.5038 27.947 12.9598 27.4892 12.5102C27.0397 12.0525 26.4959 11.6983 25.8956 11.4722C25.3232 11.2508 24.668 11.0978 23.7098 11.054C22.7504 11.0108 22.445 11 20 11ZM20 12.6218C22.403 12.6218 22.688 12.6308 23.6372 12.674C24.5144 12.7142 24.9908 12.86 25.3082 12.9842C25.7282 13.1468 26.0282 13.3424 26.3432 13.6568C26.6582 13.9718 26.8532 14.2718 27.0158 14.6918C27.1394 15.0092 27.2858 15.4856 27.326 16.3628C27.3692 17.312 27.3782 17.597 27.3782 20C27.3782 22.403 27.3692 22.688 27.326 23.6372C27.2858 24.5144 27.14 24.9908 27.0158 25.3082C26.8718 25.6991 26.6419 26.0528 26.3432 26.3432C26.0528 26.642 25.6992 26.8718 25.3082 27.0158C24.9908 27.1394 24.5144 27.2858 23.6372 27.326C22.688 27.3692 22.4036 27.3782 20 27.3782C17.5964 27.3782 17.312 27.3692 16.3628 27.326C15.4856 27.2858 15.0092 27.14 14.6918 27.0158C14.3009 26.8718 13.9472 26.6419 13.6568 26.3432C13.3581 26.0528 13.1283 25.6991 12.9842 25.3082C12.8606 24.9908 12.7142 24.5144 12.674 23.6372C12.6308 22.688 12.6218 22.403 12.6218 20C12.6218 17.597 12.6308 17.312 12.674 16.3628C12.7142 15.4856 12.86 15.0092 12.9842 14.6918C13.1468 14.2718 13.3424 13.9718 13.6568 13.6568C13.9472 13.358 14.3008 13.1282 14.6918 12.9842C15.0092 12.8606 15.4856 12.7142 16.3628 12.674C17.312 12.6308 17.597 12.6218 20 12.6218Z" fill="white"/>
<path fill-rule="evenodd" clip-rule="evenodd" d="M20 23.0028C19.6057 23.0028 19.2152 22.9251 18.8508 22.7742C18.4865 22.6233 18.1554 22.4021 17.8766 22.1232C17.5977 21.8444 17.3765 21.5133 17.2256 21.149C17.0747 20.7846 16.997 20.3941 16.997 19.9998C16.997 19.6054 17.0747 19.2149 17.2256 18.8506C17.3765 18.4862 17.5977 18.1552 17.8766 17.8763C18.1554 17.5975 18.4865 17.3763 18.8508 17.2254C19.2152 17.0745 19.6057 16.9968 20 16.9968C20.7965 16.9968 21.5603 17.3132 22.1235 17.8763C22.6866 18.4395 23.003 19.2033 23.003 19.9998C23.003 20.7962 22.6866 21.5601 22.1235 22.1232C21.5603 22.6864 20.7965 23.0028 20 23.0028ZM20 15.3738C18.7731 15.3738 17.5965 15.8612 16.7289 16.7287C15.8614 17.5963 15.374 18.7729 15.374 19.9998C15.374 21.2267 15.8614 22.4033 16.7289 23.2709C17.5965 24.1384 18.7731 24.6258 20 24.6258C21.2269 24.6258 22.4036 24.1384 23.2711 23.2709C24.1386 22.4033 24.626 21.2267 24.626 19.9998C24.626 18.7729 24.1386 17.5963 23.2711 16.7287C22.4036 15.8612 21.2269 15.3738 20 15.3738ZM25.9718 15.2898C25.9718 15.5798 25.8566 15.8579 25.6515 16.063C25.4465 16.2681 25.1683 16.3833 24.8783 16.3833C24.5883 16.3833 24.3102 16.2681 24.1051 16.063C23.9 15.8579 23.7848 15.5798 23.7848 15.2898C23.7848 14.9998 23.9 14.7216 24.1051 14.5166C24.3102 14.3115 24.5883 14.1963 24.8783 14.1963C25.1683 14.1963 25.4465 14.3115 25.6515 14.5166C25.8566 14.7216 25.9718 14.9998 25.9718 15.2898Z" fill="white"/>
</svg>
