<svg width="40" height="40" viewBox="0 0 40 40" fill="none" xmlns="http://www.w3.org/2000/svg">
<path fill-rule="evenodd" clip-rule="evenodd" d="M27.792 13.4148C28.6521 13.6459 29.3325 14.3263 29.5635 15.1863C29.9872 16.7524 30 20.0002 30 20.0002C30 20.0002 30 23.2608 29.5764 24.8141C29.3453 25.6741 28.665 26.3545 27.8049 26.5856C26.2516 27.0092 20 27.0092 20 27.0092C20 27.0092 13.7484 27.0092 12.1951 26.5856C11.335 26.3545 10.6547 25.6741 10.4236 24.8141C10 23.248 10 20.0002 10 20.0002C10 20.0002 10 16.7524 10.4108 15.1992C10.6418 14.3391 11.3222 13.6587 12.1823 13.4277C13.7356 13.004 19.9872 12.9912 19.9872 12.9912C19.9872 12.9912 26.2388 12.9912 27.792 13.4148ZM23.1836 20.0002L17.9974 23.004V16.9963L23.1836 20.0002Z" fill="white"/>
</svg>
