<svg width="120" height="120" viewBox="0 0 120 120" fill="none" xmlns="http://www.w3.org/2000/svg">
<path d="M43.4047 74.8256C43.4047 74.8256 25.9427 67.5507 20.7778 46.5889C20.7778 46.5889 24.7129 56.5765 39.1007 65.5778V35.1215L44.7574 30.1894V68.2904C44.7574 68.2904 51.5209 71.1264 51.8898 71.0031V26.1389L57.3006 21.3114V72.2362C57.3006 72.2362 63.5722 70.2633 64.4329 69.4002V18.3522L70.2127 13.5433V66.3854C70.2127 66.3854 76.2789 61.7343 77.1483 60.5223C77.5911 59.9058 77.1483 8.16724 77.1483 8.16724L82.6328 3.55566V54.3324C82.6328 54.3324 90.7491 46.0957 93.2085 29.3263C93.2085 29.3263 97.6355 57.3163 73.4099 72.2362C73.4099 72.2362 85.0923 71.9896 99.1112 61.3854C99.1112 61.3854 84.3545 83.4569 55.5789 78.648C55.5789 78.648 41.6832 82.1005 27.0494 72.7294C27.0494 72.7294 42.4209 75.5654 43.4047 74.8256Z" fill="#292929"/>
<path d="M10.8514 99.6801C9.98858 99.6801 9.26265 99.4893 8.67361 99.1077C8.09287 98.726 7.65317 98.1951 7.3545 97.5148C7.06413 96.8262 6.91895 96.0215 6.91895 95.1006C6.91895 94.2046 7.07242 93.4165 7.37939 92.7361C7.69465 92.0476 8.15509 91.5125 8.76072 91.1308C9.36636 90.7409 10.113 90.5459 11.0007 90.5459C11.5897 90.5459 12.0751 90.6081 12.4567 90.7326C12.8466 90.857 13.1328 91.0271 13.3154 91.2428C13.5062 91.4502 13.6016 91.6867 13.6016 91.9521C13.6016 92.2259 13.4896 92.4499 13.2656 92.6241C13.0416 92.7983 12.7513 92.8855 12.3945 92.8855C12.3945 92.62 12.3488 92.3628 12.2576 92.1139C12.1664 91.865 12.0171 91.6576 11.8096 91.4917C11.6022 91.3258 11.3202 91.2428 10.9634 91.2428C10.3661 91.2428 9.88487 91.3921 9.51983 91.6908C9.16309 91.9895 8.90176 92.4291 8.73583 93.0099C8.5782 93.5823 8.49939 94.2792 8.49939 95.1006C8.49939 95.8556 8.5865 96.5109 8.76072 97.0668C8.93495 97.6227 9.20872 98.054 9.58206 98.361C9.96369 98.6597 10.4615 98.809 11.0754 98.809C11.4819 98.809 11.8262 98.7592 12.1083 98.6597C12.3904 98.5518 12.6309 98.4149 12.8301 98.249C13.0292 98.0748 13.1993 97.8965 13.3403 97.7139C13.4066 97.7637 13.4606 97.83 13.5021 97.913C13.5435 97.996 13.5643 98.0956 13.5643 98.2117C13.5643 98.3776 13.5104 98.5477 13.4025 98.7219C13.3029 98.8878 13.1453 99.0455 12.9296 99.1948C12.7139 99.3358 12.4318 99.452 12.0834 99.5432C11.7433 99.6345 11.3326 99.6801 10.8514 99.6801ZM14.7328 99.5557V98.9957H14.9942C15.1684 98.9957 15.3219 98.9749 15.4546 98.9335C15.5957 98.892 15.7077 98.809 15.7906 98.6846C15.8736 98.5601 15.9151 98.3735 15.9151 98.1246V92.1015C15.9151 91.8442 15.8736 91.6576 15.7906 91.5415C15.7077 91.417 15.5957 91.334 15.4546 91.2926C15.3219 91.2511 15.1684 91.2303 14.9942 91.2303H14.7328V90.6703H18.5409V91.2303H18.2796C18.1136 91.2303 17.9602 91.2511 17.8192 91.2926C17.6781 91.334 17.5661 91.417 17.4831 91.5415C17.4084 91.6576 17.3711 91.8442 17.3711 92.1015V98.1246C17.3711 98.3735 17.4084 98.5601 17.4831 98.6846C17.5661 98.809 17.6781 98.892 17.8192 98.9335C17.9602 98.9749 18.1136 98.9957 18.2796 98.9957H18.5409V99.5557H14.7328ZM19.6606 99.5557V98.9957H19.9219C20.0878 98.9957 20.2372 98.9791 20.3699 98.9459C20.5109 98.9045 20.6229 98.8256 20.7059 98.7095C20.7972 98.5933 20.8428 98.4191 20.8428 98.1868V92.0517C20.8428 91.8111 20.7972 91.6327 20.7059 91.5166C20.6229 91.4005 20.5109 91.3258 20.3699 91.2926C20.2372 91.2511 20.0878 91.2303 19.9219 91.2303H19.6606V90.6703H22.7095L25.1362 97.4775L27.5379 90.6703H30.5122V91.2303H30.2508C30.0849 91.2303 29.9314 91.2511 29.7904 91.2926C29.6494 91.334 29.5374 91.417 29.4544 91.5415C29.3714 91.6576 29.3299 91.8442 29.3299 92.1015V98.1246C29.3299 98.3735 29.3714 98.5601 29.4544 98.6846C29.5374 98.809 29.6494 98.892 29.7904 98.9335C29.9314 98.9749 30.0849 98.9957 30.2508 98.9957H30.5122V99.5557H27.0153V98.9957H27.0775C27.2517 98.9957 27.4011 98.9791 27.5255 98.9459C27.6583 98.9045 27.7578 98.8298 27.8242 98.7219C27.8905 98.614 27.9278 98.4522 27.9362 98.2366V91.6908L25.1859 99.5557H24.4642L21.6517 91.7032V98.1246C21.6517 98.3735 21.6849 98.5601 21.7513 98.6846C21.8259 98.809 21.9296 98.892 22.0624 98.9335C22.2034 98.9749 22.3652 98.9957 22.5477 98.9957H22.5975V99.5557H19.6606ZM31.6369 99.5557V98.9957H31.8983C32.0725 98.9957 32.2259 98.9749 32.3587 98.9335C32.4997 98.892 32.6117 98.809 32.6947 98.6846C32.7776 98.5601 32.8192 98.3735 32.8192 98.1246V92.0517C32.8192 91.8111 32.7735 91.6327 32.6823 91.5166C32.5993 91.4005 32.4873 91.3258 32.3463 91.2926C32.2135 91.2511 32.0642 91.2303 31.8983 91.2303H31.6369V90.6703H40.5969V91.2303H40.3356C40.1696 91.2303 40.0162 91.2511 39.8752 91.2926C39.7341 91.334 39.6221 91.417 39.5392 91.5415C39.4562 91.6576 39.4147 91.8442 39.4147 92.1015V98.1868C39.4147 98.4191 39.4562 98.5933 39.5392 98.7095C39.6304 98.8256 39.7424 98.9045 39.8752 98.9459C40.0162 98.9791 40.1696 98.9957 40.3356 98.9957H40.5969V99.5557H36.7889V98.9957H37.0503C37.2245 98.9957 37.3779 98.9749 37.5107 98.9335C37.6517 98.892 37.7637 98.809 37.8467 98.6846C37.9296 98.5601 37.9712 98.3735 37.9712 98.1246V91.3299H34.2627V98.1246C34.2627 98.3735 34.3042 98.5601 34.3872 98.6846C34.4701 98.809 34.5821 98.892 34.7232 98.9335C34.8642 98.9749 35.0176 98.9957 35.1836 98.9957H35.4449V99.5557H31.6369ZM41.1242 99.5557V98.9957H41.3357C41.5016 98.9957 41.6344 98.9708 41.7339 98.921C41.8418 98.8712 41.9372 98.78 42.0202 98.6472C42.1114 98.5062 42.2027 98.3029 42.2939 98.0375L45.0442 90.6703H46.2139L48.9642 98.2739C49.0388 98.4647 49.1135 98.614 49.1882 98.7219C49.2712 98.8215 49.3665 98.892 49.4744 98.9335C49.5905 98.9749 49.7233 98.9957 49.8726 98.9957H50.0468V99.5557H46.4379V98.9957H46.7739C46.9896 98.9957 47.1597 98.95 47.2842 98.8588C47.4086 98.7676 47.4708 98.6223 47.4708 98.4232C47.4708 98.3735 47.4667 98.3237 47.4584 98.2739C47.4501 98.2241 47.4376 98.1702 47.4211 98.1121C47.4045 98.054 47.3878 98.0001 47.3713 97.9503L46.8859 96.5939H43.6753L43.2397 97.8383C43.2148 97.9047 43.1941 97.9752 43.1775 98.0499C43.1609 98.1162 43.1443 98.1827 43.1277 98.249C43.1194 98.3071 43.1153 98.3651 43.1153 98.4232C43.1153 98.614 43.1816 98.7592 43.3144 98.8588C43.4472 98.95 43.6296 98.9957 43.8619 98.9957H44.2228V99.5557H41.1242ZM43.9242 95.9343H46.6495L45.9153 93.7939C45.8406 93.5616 45.7618 93.3335 45.6788 93.1095C45.6042 92.8855 45.5378 92.6698 45.4797 92.4623C45.4216 92.2467 45.3677 92.0392 45.3179 91.8401C45.2847 91.9895 45.2474 92.1388 45.2059 92.2881C45.1645 92.4291 45.1188 92.5743 45.0691 92.7237C45.0276 92.873 44.9778 93.0307 44.9197 93.1966C44.8699 93.3542 44.8077 93.5201 44.7331 93.6943L43.9242 95.9343ZM51.4307 99.5557V98.9957H51.7792C51.9451 98.9957 52.0985 98.9791 52.2396 98.9459C52.3806 98.9045 52.4926 98.8256 52.5756 98.7095C52.6585 98.585 52.7001 98.4067 52.7001 98.1743V91.3299H51.5552C51.3145 91.3299 51.1237 91.3756 50.9827 91.4668C50.8416 91.5498 50.7379 91.6659 50.6716 91.8152C50.6052 91.9646 50.5596 92.1305 50.5347 92.313L50.4601 92.9103H49.7632L49.8254 90.6703H57.0432L57.1054 92.9103H56.4085L56.3338 92.313C56.3172 92.1305 56.2716 91.9646 56.1969 91.8152C56.1305 91.6659 56.0268 91.5498 55.8858 91.4668C55.7447 91.3756 55.5498 91.3299 55.3009 91.3299H54.1561V98.1246C54.1561 98.3735 54.1934 98.5601 54.2681 98.6846C54.3509 98.809 54.4629 98.892 54.6041 98.9335C54.7451 98.9749 54.8985 98.9957 55.0645 98.9957H55.4129V99.5557H51.4307ZM58.0016 99.5557V98.9957H58.2629C58.4372 98.9957 58.5907 98.9749 58.7234 98.9335C58.8645 98.892 58.9765 98.809 59.0594 98.6846C59.1424 98.5601 59.1838 98.3735 59.1838 98.1246V92.0517C59.1838 91.8111 59.1383 91.6327 59.0469 91.5166C58.9641 91.4005 58.8521 91.3258 58.7109 91.2926C58.5783 91.2511 58.4289 91.2303 58.2629 91.2303H58.0016V90.6703H61.8096V91.2303H61.5483C61.3824 91.2303 61.2289 91.2511 61.0878 91.2926C60.9468 91.334 60.8348 91.417 60.7518 91.5415C60.6689 91.6576 60.6274 91.8442 60.6274 92.1015V96.8801L64.5474 92.3379V92.1015C64.5474 91.8442 64.5059 91.6576 64.4229 91.5415C64.3401 91.417 64.2281 91.334 64.0869 91.2926C63.9543 91.2511 63.8049 91.2303 63.6389 91.2303H63.3652V90.6703H67.1732V91.2303H66.9118C66.7459 91.2303 66.5925 91.2511 66.4514 91.2926C66.3104 91.334 66.1984 91.417 66.1154 91.5415C66.0407 91.6576 66.0034 91.8442 66.0034 92.1015V98.1868C66.0034 98.4191 66.0449 98.5933 66.1278 98.7095C66.2108 98.8256 66.3228 98.9045 66.4638 98.9459C66.6049 98.9791 66.7543 98.9957 66.9118 98.9957H67.1732V99.5557H63.3652V98.9957H63.6389C63.8049 98.9957 63.9543 98.9749 64.0869 98.9335C64.2281 98.892 64.3401 98.809 64.4229 98.6846C64.5059 98.5601 64.5474 98.3735 64.5474 98.1246V93.2712L60.6274 97.801V98.1246C60.6274 98.3735 60.6689 98.5601 60.7518 98.6846C60.8348 98.809 60.9468 98.892 61.0878 98.9335C61.2289 98.9749 61.3824 98.9957 61.5483 98.9957H61.8096V99.5557H58.0016ZM68.2887 99.5557V98.9957H68.5501C68.716 98.9957 68.8653 98.9791 68.9981 98.9459C69.1391 98.9045 69.2511 98.8256 69.3341 98.7095C69.4253 98.5933 69.4709 98.4191 69.4709 98.1868V92.0517C69.4709 91.8111 69.4253 91.6327 69.3341 91.5166C69.2511 91.4005 69.1391 91.3258 68.9981 91.2926C68.8653 91.2511 68.716 91.2303 68.5501 91.2303H68.2887V90.6703H72.0594V91.2303H71.7981C71.6404 91.2303 71.4869 91.2511 71.3376 91.2926C71.1966 91.334 71.0846 91.417 71.0016 91.5415C70.9269 91.6576 70.8896 91.8442 70.8896 92.1015V94.7895C71.1302 94.7895 71.3127 94.777 71.4372 94.7521C71.5699 94.7272 71.6736 94.6858 71.7483 94.6277C71.8313 94.5696 71.9101 94.4991 71.9847 94.4161C72.0926 94.2833 72.2253 94.0677 72.3829 93.769C72.5488 93.462 72.7479 93.0805 72.9803 92.6241C73.1959 92.1927 73.4117 91.8277 73.6274 91.529C73.8431 91.222 74.0754 90.9898 74.3243 90.8321C74.5815 90.6745 74.8718 90.5957 75.1954 90.5957C75.4443 90.5957 75.6393 90.633 75.7803 90.7077C75.9296 90.774 76.0375 90.8653 76.1038 90.9815C76.1702 91.0976 76.2034 91.2303 76.2034 91.3797C76.2034 91.6202 76.1412 91.8152 76.0167 91.9646C75.9006 92.1139 75.7595 92.2051 75.5936 92.2383C75.5604 92.0558 75.4857 91.8982 75.3696 91.7655C75.2617 91.6245 75.0958 91.5539 74.8718 91.5539C74.7142 91.5539 74.5607 91.6078 74.4114 91.7157C74.2621 91.8152 74.1168 91.9729 73.9758 92.1886C73.8348 92.396 73.6772 92.6656 73.503 92.9975C73.3204 93.3376 73.1669 93.6238 73.0425 93.8561C72.9264 94.0885 72.8144 94.2833 72.7065 94.441C72.5986 94.5903 72.4784 94.7231 72.3456 94.8392C72.6277 94.8476 72.8642 94.8973 73.0549 94.9886C73.2457 95.0716 73.4117 95.196 73.5527 95.3619C73.6937 95.5196 73.8265 95.7145 73.951 95.9468L75.071 97.9628C75.212 98.2033 75.3531 98.4025 75.4941 98.5601C75.6351 98.7095 75.7844 98.8215 75.9421 98.8961C76.0997 98.9625 76.2697 98.9957 76.4523 98.9957H76.5021V99.5557H76.1287C75.6309 99.5557 75.2327 99.5225 74.9341 99.4561C74.6354 99.3815 74.3948 99.2611 74.2123 99.0952C74.0297 98.9293 73.8597 98.6929 73.7021 98.3859L72.5572 96.2206C72.4576 96.0298 72.3581 95.8805 72.2585 95.7726C72.1673 95.6647 72.0635 95.5859 71.9474 95.5361C71.8395 95.478 71.6985 95.4407 71.5243 95.4241C71.3584 95.4076 71.1468 95.3992 70.8896 95.3992V98.1246C70.8896 98.3735 70.9269 98.5601 71.0016 98.6846C71.0846 98.809 71.1966 98.892 71.3376 98.9335C71.4869 98.9749 71.6404 98.9957 71.7981 98.9957H72.0594V99.5557H68.2887ZM80.8056 99.5557V98.9957H81.0669C81.2412 98.9957 81.3946 98.9749 81.5274 98.9335C81.6684 98.892 81.7804 98.8131 81.8634 98.697C81.9464 98.5726 81.9878 98.3859 81.9878 98.137V92.089C81.9878 91.8318 81.9464 91.6451 81.8634 91.529C81.7804 91.4046 81.6684 91.3258 81.5274 91.2926C81.3946 91.2511 81.2412 91.2303 81.0669 91.2303H80.8056V90.6703H87.115L87.1896 92.873H86.4803L86.4305 92.4001C86.4056 92.1678 86.3558 91.9729 86.2812 91.8152C86.2065 91.6576 86.0904 91.5373 85.9327 91.4543C85.7751 91.3713 85.5553 91.3299 85.2732 91.3299H83.4314V98.1619C83.4314 98.4025 83.4728 98.585 83.5558 98.7095C83.6471 98.8256 83.7591 98.9045 83.8918 98.9459C84.0328 98.9791 84.1864 98.9957 84.3523 98.9957H84.8625V99.5557H80.8056ZM88.1396 99.5557V98.9957H88.4009C88.5752 98.9957 88.7286 98.9749 88.8614 98.9335C89.0024 98.892 89.1144 98.809 89.1974 98.6846C89.2803 98.5601 89.3218 98.3735 89.3218 98.1246V92.0517C89.3218 91.8111 89.2762 91.6327 89.185 91.5166C89.102 91.4005 88.99 91.3258 88.849 91.2926C88.7162 91.2511 88.5668 91.2303 88.4009 91.2303H88.1396V90.6703H91.7236C92.8021 90.6703 93.5985 90.9027 94.113 91.3672C94.6273 91.8318 94.8845 92.4707 94.8845 93.2837C94.8845 93.657 94.8223 94.0138 94.6978 94.3539C94.5816 94.6858 94.3867 94.9845 94.113 95.2499C93.8474 95.5153 93.4948 95.7269 93.0552 95.8846C92.6154 96.0339 92.0803 96.1086 91.4498 96.1086H90.7654V98.1868C90.7654 98.4191 90.8068 98.5933 90.8898 98.7095C90.9811 98.8256 91.0972 98.9045 91.2383 98.9459C91.3793 98.9791 91.5286 98.9957 91.6863 98.9957H92.1965V99.5557H88.1396ZM91.3254 95.4863C91.6821 95.4863 91.9891 95.449 92.2463 95.3743C92.5034 95.2913 92.7108 95.1669 92.8685 95.001C93.0261 94.8268 93.1423 94.6028 93.2169 94.329C93.2916 94.0552 93.3289 93.7233 93.3289 93.3335C93.3289 92.8689 93.2708 92.4872 93.1547 92.1886C93.0385 91.8899 92.8477 91.67 92.5823 91.529C92.3167 91.3797 91.9601 91.305 91.5121 91.305H90.7654V95.4863H91.3254ZM96.6361 99.5557V98.9335H97.2832C97.5652 98.9335 97.8348 98.8878 98.0921 98.7966C98.3575 98.697 98.5898 98.5601 98.7889 98.3859C98.9963 98.2117 99.1456 98.0042 99.2369 97.7637L96.3872 91.8899C96.3125 91.724 96.2378 91.5953 96.1632 91.5041C96.0885 91.4046 96.0014 91.334 95.9018 91.2926C95.8023 91.2511 95.6695 91.2303 95.5036 91.2303H95.3418V90.6703H99.0378V91.2303H98.7765C98.5358 91.2303 98.3534 91.276 98.229 91.3672C98.1127 91.4585 98.0547 91.6037 98.0547 91.8028C98.0547 91.8858 98.063 91.9687 98.0796 92.0517C98.1045 92.1347 98.1376 92.23 98.1792 92.3379L99.4361 95.0259C99.5771 95.3162 99.7015 95.6149 99.8094 95.9219C99.9255 96.2206 100.017 96.5027 100.083 96.7681C100.15 96.5276 100.224 96.2952 100.307 96.0712C100.39 95.8389 100.49 95.5693 100.606 95.2623L101.701 92.4623C101.759 92.3379 101.796 92.2218 101.813 92.1139C101.838 91.9978 101.85 91.9065 101.85 91.8401C101.85 91.6245 101.78 91.4709 101.639 91.3797C101.506 91.2801 101.303 91.2303 101.029 91.2303H100.768V90.6703H103.804V91.2303H103.568C103.41 91.2303 103.281 91.2593 103.182 91.3175C103.082 91.3672 102.991 91.4627 102.908 91.6037C102.825 91.7365 102.73 91.9356 102.622 92.201L100.606 97.1912C100.398 97.6973 100.208 98.1038 100.033 98.4108C99.8592 98.7178 99.6642 98.9542 99.4485 99.1201C99.2411 99.286 98.9797 99.4022 98.6645 99.4686C98.3575 99.5267 97.9717 99.5557 97.5072 99.5557H96.6361ZM104.448 99.5557V98.9957H104.709C104.884 98.9957 105.037 98.9749 105.17 98.9335C105.311 98.892 105.423 98.809 105.506 98.6846C105.589 98.5601 105.63 98.3735 105.63 98.1246V92.0517C105.63 91.8111 105.585 91.6327 105.493 91.5166C105.411 91.4005 105.299 91.3258 105.157 91.2926C105.025 91.2511 104.875 91.2303 104.709 91.2303H104.448V90.6703H113.408V91.2303H113.147C112.981 91.2303 112.828 91.2511 112.687 91.2926C112.545 91.334 112.433 91.417 112.35 91.5415C112.268 91.6576 112.225 91.8442 112.225 92.1015V98.1868C112.225 98.4191 112.268 98.5933 112.35 98.7095C112.442 98.8256 112.553 98.9045 112.687 98.9459C112.828 98.9791 112.981 98.9957 113.147 98.9957H113.408V99.5557H109.6V98.9957H109.861C110.036 98.9957 110.189 98.9749 110.322 98.9335C110.463 98.892 110.575 98.809 110.658 98.6846C110.741 98.5601 110.782 98.3735 110.782 98.1246V91.3299H107.074V98.1246C107.074 98.3735 107.115 98.5601 107.198 98.6846C107.281 98.809 107.393 98.892 107.534 98.9335C107.675 98.9749 107.829 98.9957 107.995 98.9957H108.256V99.5557H104.448Z" fill="#292929"/>
<path d="M35.729 113.667V113.382H35.8979C36.0342 113.382 36.1438 113.368 36.2268 113.338C36.3157 113.308 36.3927 113.254 36.4579 113.178C36.529 113.101 36.609 112.991 36.6979 112.849L38.1468 110.467L36.7334 108.049C36.6623 107.93 36.5942 107.841 36.529 107.782C36.4638 107.717 36.3898 107.673 36.3068 107.649C36.2298 107.619 36.1379 107.604 36.0312 107.604H35.8446V107.32H37.9423V107.604H37.809C37.6253 107.604 37.5068 107.625 37.4534 107.667C37.4001 107.708 37.3734 107.761 37.3734 107.827C37.3734 107.892 37.3912 107.963 37.4268 108.04C37.4623 108.117 37.5216 108.23 37.6046 108.378L38.5023 109.933L39.4001 108.396C39.4653 108.277 39.5187 108.17 39.5601 108.076C39.6076 107.981 39.6312 107.898 39.6312 107.827C39.6312 107.744 39.5987 107.687 39.5334 107.658C39.4742 107.622 39.3704 107.604 39.2223 107.604H39.0623V107.32H40.929V107.604H40.769C40.6446 107.604 40.5409 107.619 40.4579 107.649C40.3809 107.673 40.3068 107.723 40.2357 107.8C40.1704 107.877 40.0904 107.99 39.9957 108.138L38.7068 110.28L40.2712 112.929C40.3542 113.053 40.4253 113.148 40.4846 113.213C40.5498 113.279 40.6179 113.323 40.689 113.347C40.7601 113.37 40.846 113.382 40.9468 113.382H41.1068V113.667H39.0179V113.382H39.1957C39.3557 113.382 39.4682 113.361 39.5334 113.32C39.5987 113.279 39.6312 113.219 39.6312 113.142C39.6312 113.071 39.6076 112.994 39.5601 112.911C39.5187 112.822 39.4387 112.68 39.3201 112.484L38.3601 110.822L37.4001 112.413C37.3349 112.532 37.2787 112.636 37.2312 112.724C37.1838 112.813 37.1453 112.893 37.1157 112.964C37.092 113.03 37.0801 113.092 37.0801 113.151C37.0801 113.228 37.1127 113.288 37.1779 113.329C37.249 113.364 37.3764 113.382 37.5601 113.382H37.7734V113.667H35.729ZM45.2456 113.755C44.647 113.755 44.1492 113.622 43.7522 113.356C43.3551 113.089 43.0589 112.712 42.8633 112.227C42.6678 111.734 42.57 111.151 42.57 110.476C42.57 109.8 42.6678 109.222 42.8633 108.742C43.0648 108.256 43.364 107.883 43.7611 107.622C44.164 107.355 44.6618 107.222 45.2544 107.222C45.8589 107.222 46.3567 107.355 46.7478 107.622C47.1389 107.883 47.4322 108.259 47.6278 108.751C47.8233 109.237 47.9211 109.815 47.9211 110.484C47.9211 111.142 47.8203 111.717 47.6189 112.209C47.4233 112.694 47.127 113.074 46.73 113.347C46.3389 113.619 45.844 113.755 45.2456 113.755ZM45.2456 113.391C45.6129 113.391 45.924 113.326 46.1789 113.196C46.4337 113.066 46.6411 112.876 46.8011 112.627C46.9611 112.372 47.0767 112.067 47.1478 111.711C47.2248 111.35 47.2633 110.941 47.2633 110.484C47.2633 110.028 47.2278 109.622 47.1567 109.267C47.0856 108.905 46.97 108.6 46.81 108.351C46.6559 108.102 46.4515 107.912 46.1967 107.782C45.9418 107.652 45.6278 107.587 45.2544 107.587C44.9048 107.587 44.5996 107.652 44.3389 107.782C44.084 107.912 43.8737 108.102 43.7078 108.351C43.5418 108.6 43.4173 108.905 43.3344 109.267C43.2573 109.622 43.2189 110.028 43.2189 110.484C43.2189 110.941 43.2573 111.35 43.3344 111.711C43.4173 112.072 43.5418 112.378 43.7078 112.627C43.8737 112.876 44.084 113.066 44.3389 113.196C44.5937 113.326 44.8959 113.391 45.2456 113.391ZM49.761 113.729C49.5477 113.729 49.3758 113.679 49.2455 113.578C49.121 113.471 49.0588 113.329 49.0588 113.151C49.0588 113.027 49.0854 112.929 49.1388 112.858C49.198 112.787 49.2691 112.751 49.3521 112.751C49.3699 112.876 49.4173 112.985 49.4943 113.08C49.5773 113.174 49.6929 113.222 49.841 113.222C49.9418 113.222 50.0336 113.201 50.1166 113.16C50.1996 113.119 50.2766 113.05 50.3477 112.955C50.4247 112.854 50.4958 112.716 50.561 112.538C50.6321 112.354 50.7032 112.126 50.7743 111.853C50.8336 111.622 50.8899 111.368 50.9432 111.089C50.9966 110.804 51.044 110.517 51.0854 110.227C51.1329 109.93 51.1713 109.643 51.201 109.364C51.2307 109.086 51.2543 108.837 51.2721 108.618C51.2899 108.393 51.2988 108.212 51.2988 108.076C51.2988 107.945 51.278 107.847 51.2366 107.782C51.1951 107.711 51.1329 107.664 51.0499 107.64C50.9669 107.616 50.8602 107.604 50.7299 107.604H50.4543V107.32H54.7743V107.604H54.5343C54.404 107.604 54.2913 107.622 54.1966 107.658C54.1077 107.687 54.0396 107.753 53.9921 107.853C53.9507 107.948 53.9299 108.096 53.9299 108.298V112.68C53.9299 112.881 53.9507 113.032 53.9921 113.133C54.0396 113.234 54.1077 113.302 54.1966 113.338C54.2913 113.368 54.4099 113.382 54.5521 113.382H54.7743V113.667H52.4632V113.382H52.6854C52.8336 113.382 52.9551 113.368 53.0499 113.338C53.1447 113.302 53.2129 113.234 53.2543 113.133C53.3018 113.032 53.3254 112.881 53.3254 112.68V107.667H51.7077C51.6899 108.04 51.6602 108.434 51.6188 108.849C51.5832 109.264 51.5358 109.676 51.4766 110.084C51.4232 110.493 51.361 110.884 51.2899 111.258C51.2188 111.626 51.1418 111.957 51.0588 112.253C50.958 112.609 50.8513 112.897 50.7388 113.115C50.6262 113.329 50.4929 113.486 50.3388 113.587C50.1847 113.681 49.9921 113.729 49.761 113.729ZM56.3879 115.533V113.32H56.939C57.0812 113.041 57.2323 112.721 57.3923 112.36C57.5523 111.999 57.7034 111.625 57.8457 111.24C57.9938 110.849 58.1271 110.458 58.2457 110.067C58.3642 109.675 58.459 109.308 58.5301 108.964C58.6012 108.615 58.6368 108.307 58.6368 108.04C58.6368 107.91 58.6101 107.815 58.5568 107.755C58.5093 107.696 58.4353 107.658 58.3346 107.64C58.2338 107.616 58.1123 107.604 57.9701 107.604H57.8101V107.32H61.7479V107.604H61.5612C61.419 107.604 61.3004 107.619 61.2057 107.649C61.1168 107.679 61.0516 107.744 61.0101 107.844C60.9746 107.939 60.9568 108.087 60.9568 108.289V112.662C60.9568 112.852 60.9804 112.994 61.0279 113.089C61.0812 113.183 61.1612 113.245 61.2679 113.275C61.3746 113.305 61.5109 113.32 61.6768 113.32H61.8901V115.533H61.5879C61.5879 115.178 61.5701 114.881 61.5346 114.644C61.499 114.408 61.4427 114.214 61.3657 114.067C61.2887 113.924 61.1938 113.821 61.0812 113.755C60.9687 113.697 60.8323 113.667 60.6723 113.667H57.6234C57.4634 113.667 57.3242 113.697 57.2057 113.755C57.0871 113.814 56.9893 113.912 56.9123 114.049C56.8353 114.191 56.779 114.381 56.7434 114.618C56.7079 114.861 56.6901 115.166 56.6901 115.533H56.3879ZM57.3746 113.32H60.3523V107.667H59.0368C59.0309 108.141 58.9716 108.639 58.859 109.16C58.7523 109.676 58.6131 110.188 58.4412 110.698C58.2753 111.201 58.0976 111.679 57.9079 112.129C57.7182 112.579 57.5404 112.977 57.3746 113.32ZM63.649 113.667V113.382H63.8979C64.0342 113.382 64.1468 113.368 64.2357 113.338C64.3304 113.302 64.3987 113.234 64.4401 113.133C64.4876 113.032 64.5112 112.881 64.5112 112.68V108.298C64.5112 108.09 64.4876 107.939 64.4401 107.844C64.3987 107.744 64.3304 107.679 64.2357 107.649C64.1468 107.619 64.0342 107.604 63.8979 107.604H63.649V107.32H65.9868V107.604H65.729C65.5987 107.604 65.486 107.622 65.3912 107.658C65.2965 107.687 65.2253 107.753 65.1779 107.853C65.1364 107.948 65.1157 108.096 65.1157 108.298V112.067L68.4757 108.422V108.271C68.4757 108.076 68.452 107.93 68.4046 107.836C68.3571 107.741 68.289 107.679 68.2001 107.649C68.1112 107.619 68.0016 107.604 67.8712 107.604H67.5957V107.32H69.9335V107.604H69.6846C69.5601 107.604 69.4505 107.619 69.3557 107.649C69.2668 107.679 69.1987 107.741 69.1512 107.836C69.1038 107.93 69.0801 108.076 69.0801 108.271V112.698C69.0801 112.899 69.1009 113.05 69.1423 113.151C69.1898 113.245 69.2579 113.308 69.3468 113.338C69.4416 113.368 69.5542 113.382 69.6846 113.382H69.9335V113.667H67.5957V113.382H67.8623C67.9987 113.382 68.1112 113.368 68.2001 113.338C68.2949 113.302 68.3631 113.234 68.4046 113.133C68.452 113.032 68.4757 112.881 68.4757 112.68V108.929L65.1157 112.556V112.68C65.1157 112.881 65.1364 113.032 65.1779 113.133C65.2253 113.234 65.2965 113.302 65.3912 113.338C65.486 113.368 65.6016 113.382 65.7379 113.382H65.9868V113.667H63.649ZM71.773 113.667V113.382H72.013C72.1552 113.382 72.2708 113.368 72.3597 113.338C72.4545 113.302 72.5226 113.234 72.5641 113.133C72.6114 113.032 72.6352 112.881 72.6352 112.68V108.289C72.6352 108.087 72.6114 107.939 72.5641 107.844C72.5226 107.744 72.4545 107.679 72.3597 107.649C72.2648 107.619 72.1492 107.604 72.013 107.604H71.773V107.32H74.1108V107.604H73.8619C73.7256 107.604 73.61 107.622 73.5152 107.658C73.4203 107.687 73.3492 107.753 73.3019 107.853C73.2603 107.948 73.2397 108.099 73.2397 108.307V110.173H76.4575V108.307C76.4575 108.099 76.4337 107.948 76.3863 107.853C76.3448 107.753 76.2767 107.687 76.1819 107.658C76.093 107.622 75.9774 107.604 75.8352 107.604H75.5952V107.32H77.9241V107.604H77.6841C77.5478 107.604 77.4322 107.622 77.3375 107.658C77.2426 107.687 77.1715 107.753 77.1241 107.853C77.0826 107.948 77.0619 108.099 77.0619 108.307V112.698C77.0619 112.899 77.0856 113.05 77.133 113.151C77.1803 113.245 77.2486 113.308 77.3375 113.338C77.4322 113.368 77.5478 113.382 77.6841 113.382H77.9241V113.667H75.5952V113.382H75.8352C75.9774 113.382 76.093 113.368 76.1819 113.338C76.2767 113.302 76.3448 113.234 76.3863 113.133C76.4337 113.032 76.4575 112.881 76.4575 112.68V110.52H73.2397V112.68C73.2397 112.881 73.2603 113.032 73.3019 113.133C73.3492 113.234 73.4203 113.302 73.5152 113.338C73.61 113.368 73.7256 113.382 73.8619 113.382H74.1108V113.667H71.773ZM79.758 113.667V113.382H79.998C80.1402 113.382 80.2558 113.368 80.3447 113.338C80.4396 113.302 80.5077 113.234 80.5491 113.133C80.5966 113.032 80.6202 112.881 80.6202 112.68V108.307C80.6202 108.099 80.5966 107.948 80.5491 107.853C80.5077 107.753 80.4396 107.687 80.3447 107.658C80.2558 107.622 80.1402 107.604 79.998 107.604H79.758V107.32H83.9002L83.9447 108.831H83.6158L83.5802 108.378C83.5685 108.212 83.5418 108.078 83.5002 107.978C83.4647 107.871 83.3966 107.794 83.2958 107.747C83.201 107.693 83.0529 107.667 82.8513 107.667H81.2247V112.698C81.2247 112.893 81.2485 113.041 81.2958 113.142C81.3432 113.243 81.4113 113.308 81.5002 113.338C81.5951 113.368 81.7107 113.382 81.8469 113.382H82.2913V113.667H79.758Z" fill="#292929"/>
</svg>
