<svg width="120" height="120" viewBox="0 0 120 120" fill="none" xmlns="http://www.w3.org/2000/svg">
<path d="M43.4047 74.8256C43.4047 74.8256 25.9427 67.5507 20.7778 46.5889C20.7778 46.5889 24.7129 56.5766 39.1007 65.5778V35.1216L44.7574 30.1894V68.2904C44.7574 68.2904 51.5209 71.1264 51.8898 71.0031V26.1389L57.3006 21.3114V72.2362C57.3006 72.2362 63.5722 70.2633 64.4329 69.4002V18.3522L70.2127 13.5433V66.3854C70.2127 66.3854 76.2789 61.7343 77.1483 60.5223C77.5911 59.9058 77.1483 8.16724 77.1483 8.16724L82.6328 3.55566V54.3324C82.6328 54.3324 90.7491 46.0957 93.2085 29.3263C93.2085 29.3263 97.6355 57.3163 73.4099 72.2362C73.4099 72.2362 85.0923 71.9896 99.1112 61.3854C99.1112 61.3854 84.3545 83.4569 55.5789 78.648C55.5789 78.648 41.6832 82.1006 27.0494 72.7294C27.0494 72.7294 42.4209 75.5654 43.4047 74.8256Z" fill="white"/>
<path d="M8.35821 99.6799C7.91021 99.6799 7.52029 99.6384 7.18843 99.5554C6.86488 99.4642 6.59525 99.3398 6.37955 99.1821C6.16385 99.0162 6.00621 98.8253 5.90666 98.6096C5.8071 98.394 5.75732 98.1658 5.75732 97.9252C5.75732 97.7261 5.7988 97.5602 5.88177 97.4274C5.97302 97.2864 6.09747 97.1826 6.2551 97.1163C6.41274 97.0416 6.5911 97.0043 6.79021 97.0043C6.8068 97.386 6.87732 97.7302 7.00177 98.0372C7.12621 98.3442 7.30874 98.5889 7.54932 98.7714C7.79821 98.9456 8.10932 99.0328 8.48266 99.0328C9.02191 99.0328 9.44088 98.9 9.73955 98.6345C10.0465 98.3691 10.2 97.9999 10.2 97.527C10.2 97.2283 10.1336 96.9753 10.0009 96.7679C9.86814 96.5522 9.66073 96.3572 9.37866 96.183C9.09658 96.0004 8.7108 95.8096 8.22132 95.6105C7.8314 95.4529 7.4871 95.2829 7.18843 95.1003C6.89807 94.9095 6.65747 94.7062 6.46666 94.4905C6.28414 94.2749 6.14725 94.0342 6.05599 93.7688C5.97302 93.495 5.93155 93.1963 5.93155 92.8728C5.93155 92.3833 6.05185 91.9684 6.29244 91.6283C6.53302 91.2799 6.86488 91.0144 7.28799 90.8319C7.7194 90.6411 8.20473 90.5456 8.74399 90.5456C9.27496 90.5456 9.7188 90.612 10.0755 90.7448C10.4323 90.8775 10.7019 91.0518 10.8844 91.2674C11.067 91.4749 11.1582 91.703 11.1582 91.9519C11.1582 92.2256 11.0587 92.4413 10.8595 92.599C10.6604 92.7483 10.3825 92.823 10.0258 92.823C10.0258 92.5741 9.98013 92.3252 9.88888 92.0763C9.80591 91.8274 9.66488 91.62 9.46577 91.4541C9.26666 91.2882 8.99288 91.2052 8.64444 91.2052C8.35407 91.2052 8.10102 91.2591 7.88532 91.367C7.66962 91.4749 7.50369 91.6283 7.38755 91.8274C7.2714 92.0265 7.21332 92.2671 7.21332 92.5492C7.21332 92.8562 7.2714 93.1216 7.38755 93.3456C7.50369 93.5613 7.7028 93.7604 7.98488 93.943C8.27525 94.1255 8.66932 94.3204 9.1671 94.5279C9.68147 94.7353 10.1129 94.9593 10.4613 95.1999C10.8098 95.4404 11.0711 95.7142 11.2453 96.0212C11.4195 96.3282 11.5067 96.6932 11.5067 97.1163C11.5067 97.6473 11.3781 98.1035 11.1209 98.4852C10.8637 98.8669 10.4987 99.1613 10.0258 99.3688C9.55288 99.5762 8.99702 99.6799 8.35821 99.6799ZM12.8215 99.5554V98.9954H13.0829C13.2571 98.9954 13.4107 98.9747 13.5433 98.9332C13.6844 98.8918 13.7964 98.8088 13.8793 98.6843C13.9623 98.5599 14.0038 98.3732 14.0038 98.1243V92.1012C14.0038 91.844 13.9623 91.6573 13.8793 91.5412C13.7964 91.4168 13.6844 91.3338 13.5433 91.2923C13.4107 91.2509 13.2571 91.2301 13.0829 91.2301H12.8215V90.6701H16.6295V91.2301H16.3682C16.2023 91.2301 16.0489 91.2509 15.9078 91.2923C15.7668 91.3338 15.6548 91.4168 15.5718 91.5412C15.4971 91.6573 15.4598 91.844 15.4598 92.1012V98.1243C15.4598 98.3732 15.4971 98.5599 15.5718 98.6843C15.6548 98.8088 15.7668 98.8918 15.9078 98.9332C16.0489 98.9747 16.2023 98.9954 16.3682 98.9954H16.6295V99.5554H12.8215ZM17.7493 99.5554V98.9954H18.0107C18.1765 98.9954 18.3259 98.9789 18.4587 98.9457C18.5997 98.9042 18.7117 98.8253 18.7947 98.7092C18.8859 98.5931 18.9315 98.4189 18.9315 98.1865V92.0514C18.9315 91.8109 18.8859 91.6324 18.7947 91.5163C18.7117 91.4002 18.5997 91.3255 18.4587 91.2923C18.3259 91.2509 18.1765 91.2301 18.0107 91.2301H17.7493V90.6701H20.7982L23.2249 97.4772L25.6267 90.6701H28.6009V91.2301H28.3395C28.1735 91.2301 28.0201 91.2509 27.8791 91.2923C27.738 91.3338 27.626 91.4168 27.5431 91.5412C27.4601 91.6573 27.4187 91.844 27.4187 92.1012V98.1243C27.4187 98.3732 27.4601 98.5599 27.5431 98.6843C27.626 98.8088 27.738 98.8918 27.8791 98.9332C28.0201 98.9747 28.1735 98.9954 28.3395 98.9954H28.6009V99.5554H25.104V98.9954H25.1662C25.3404 98.9954 25.4898 98.9789 25.6142 98.9457C25.7469 98.9042 25.8464 98.8295 25.9129 98.7216C25.9792 98.6138 26.0165 98.452 26.0249 98.2363V91.6905L23.2747 99.5554H22.5529L19.7404 91.703V98.1243C19.7404 98.3732 19.7735 98.5599 19.84 98.6843C19.9147 98.8088 20.0183 98.8918 20.1511 98.9332C20.2921 98.9747 20.4539 98.9954 20.6364 98.9954H20.6862V99.5554H17.7493ZM29.7257 99.5554V98.9954H29.987C30.1612 98.9954 30.3147 98.9747 30.4474 98.9332C30.5884 98.8918 30.7004 98.8088 30.7834 98.6843C30.8663 98.5599 30.9079 98.3732 30.9079 98.1243V92.0514C30.9079 91.8109 30.8622 91.6324 30.771 91.5163C30.688 91.4002 30.576 91.3255 30.435 91.2923C30.3022 91.2509 30.1529 91.2301 29.987 91.2301H29.7257V90.6701H33.3097C34.3881 90.6701 35.1845 90.9024 35.699 91.367C36.2133 91.8315 36.4705 92.4704 36.4705 93.2834C36.4705 93.6568 36.4083 94.0135 36.2839 94.3537C36.1677 94.6855 35.9728 94.9842 35.699 95.2496C35.4334 95.5151 35.0809 95.7267 34.6412 95.8843C34.2014 96.0337 33.6663 96.1083 33.0359 96.1083H32.3514V98.1865C32.3514 98.4189 32.3929 98.5931 32.4759 98.7092C32.5671 98.8253 32.6832 98.9042 32.8243 98.9457C32.9653 98.9789 33.1147 98.9954 33.2723 98.9954H33.7825V99.5554H29.7257ZM32.9114 95.4861C33.2681 95.4861 33.5751 95.4488 33.8323 95.3741C34.0894 95.2911 34.2969 95.1666 34.4545 95.0008C34.6121 94.8265 34.7283 94.6025 34.803 94.3288C34.8777 94.055 34.915 93.7231 34.915 93.3332C34.915 92.8686 34.8569 92.487 34.7408 92.1883C34.6245 91.8896 34.4338 91.6698 34.1683 91.5288C33.9028 91.3794 33.5461 91.3048 33.0981 91.3048H32.3514V95.4861H32.9114ZM36.5635 99.5554V98.9954H36.7751C36.941 98.9954 37.0738 98.9705 37.1733 98.9208C37.2812 98.871 37.3765 98.7798 37.4595 98.647C37.5508 98.506 37.6421 98.3026 37.7333 98.0372L40.4835 90.6701H41.6533L44.4035 98.2736C44.4782 98.4644 44.5529 98.6138 44.6275 98.7216C44.7105 98.8212 44.8059 98.8918 44.9138 98.9332C45.0299 98.9747 45.1627 98.9954 45.312 98.9954H45.4862V99.5554H41.8773V98.9954H42.2133C42.429 98.9954 42.5991 98.9498 42.7235 98.8585C42.848 98.7673 42.9102 98.6221 42.9102 98.423C42.9102 98.3732 42.9061 98.3234 42.8978 98.2736C42.8894 98.2239 42.877 98.17 42.8604 98.1119C42.8439 98.0538 42.8272 97.9999 42.8107 97.9501L42.3253 96.5936H39.1147L38.6791 97.8381C38.6542 97.9044 38.6334 97.975 38.6169 98.0496C38.6003 98.116 38.5837 98.1824 38.5671 98.2488C38.5588 98.3069 38.5547 98.3649 38.5547 98.423C38.5547 98.6138 38.621 98.759 38.7538 98.8585C38.8865 98.9498 39.069 98.9954 39.3013 98.9954H39.6622V99.5554H36.5635ZM39.3635 95.9341H42.0889L41.3547 93.7936C41.28 93.5613 41.2012 93.3332 41.1182 93.1092C41.0435 92.8852 40.9772 92.6695 40.9191 92.4621C40.861 92.2464 40.8071 92.039 40.7573 91.8399C40.7241 91.9892 40.6868 92.1385 40.6453 92.2879C40.6039 92.4289 40.5582 92.5741 40.5084 92.7234C40.467 92.8728 40.4172 93.0304 40.3591 93.1963C40.3093 93.354 40.2471 93.5199 40.1724 93.6941L39.3635 95.9341ZM46.8701 99.5554V98.9954H47.2185C47.3844 98.9954 47.5379 98.9789 47.679 98.9457C47.82 98.9042 47.932 98.8253 48.015 98.7092C48.0979 98.5848 48.1394 98.4064 48.1394 98.1741V91.3297H46.9945C46.7539 91.3297 46.5631 91.3753 46.4221 91.4665C46.281 91.5495 46.1773 91.6656 46.111 91.815C46.0445 91.9643 45.999 92.1302 45.9741 92.3128L45.8994 92.9101H45.2025L45.2648 90.6701H52.4825L52.5448 92.9101H51.8479L51.7732 92.3128C51.7565 92.1302 51.711 91.9643 51.6363 91.815C51.5699 91.6656 51.4662 91.5495 51.3252 91.4665C51.1841 91.3753 50.9892 91.3297 50.7403 91.3297H49.5954V98.1243C49.5954 98.3732 49.6328 98.5599 49.7074 98.6843C49.7903 98.8088 49.9023 98.8918 50.0434 98.9332C50.1844 98.9747 50.3379 98.9954 50.5039 98.9954H50.8523V99.5554H46.8701ZM53.441 99.5554V98.9954H53.7023C53.8765 98.9954 54.0301 98.9747 54.1628 98.9332C54.3039 98.8918 54.4159 98.8088 54.4988 98.6843C54.5818 98.5599 54.6232 98.3732 54.6232 98.1243V92.1012C54.6232 91.844 54.5818 91.6573 54.4988 91.5412C54.4159 91.4168 54.3039 91.3338 54.1628 91.2923C54.0301 91.2509 53.8765 91.2301 53.7023 91.2301H53.441V90.6701H57.249V91.2301H56.9877C56.8218 91.2301 56.6683 91.2509 56.5272 91.2923C56.3862 91.3338 56.2742 91.4168 56.1912 91.5412C56.1165 91.6573 56.0792 91.844 56.0792 92.1012V98.1243C56.0792 98.3732 56.1165 98.5599 56.1912 98.6843C56.2742 98.8088 56.3862 98.8918 56.5272 98.9332C56.6683 98.9747 56.8218 98.9954 56.9877 98.9954H57.249V99.5554H53.441ZM58.3688 99.5554V98.9954H58.6301C58.796 98.9954 58.9453 98.9789 59.0781 98.9457C59.2191 98.9042 59.3311 98.8253 59.4141 98.7092C59.5053 98.5931 59.551 98.4189 59.551 98.1865V92.0514C59.551 91.8109 59.5053 91.6324 59.4141 91.5163C59.3311 91.4002 59.2191 91.3255 59.0781 91.2923C58.9453 91.2509 58.796 91.2301 58.6301 91.2301H58.3688V90.6701H62.1768V91.2301H61.9154C61.7494 91.2301 61.596 91.2509 61.455 91.2923C61.3139 91.3338 61.2019 91.4168 61.119 91.5412C61.036 91.6573 60.9945 91.844 60.9945 92.1012V95.4488L63.3963 92.7234C63.5788 92.5243 63.7157 92.3501 63.807 92.2008C63.9065 92.0514 63.977 91.9229 64.0185 91.815C64.0683 91.6989 64.0932 91.5993 64.0932 91.5163C64.0932 91.4333 64.0683 91.3711 64.0185 91.3297C63.977 91.2882 63.9107 91.2591 63.8194 91.2425C63.7281 91.226 63.6079 91.2177 63.4585 91.2177V90.6701H66.3705V91.2177C66.1714 91.2177 65.9805 91.2674 65.7981 91.367C65.6239 91.4582 65.4454 91.591 65.263 91.7652C65.0804 91.9311 64.8854 92.1302 64.6781 92.3625L62.911 94.3288L65.4497 97.9999C65.5741 98.1658 65.6902 98.311 65.7981 98.4354C65.9142 98.5599 66.0262 98.6678 66.1341 98.759C66.2502 98.842 66.3663 98.9042 66.4825 98.9457C66.5987 98.9789 66.719 98.9954 66.8434 98.9954H66.8683V99.5554H66.5821C66.1507 99.5554 65.7939 99.5389 65.5119 99.5056C65.2381 99.4642 65.0099 99.402 64.8274 99.319C64.6449 99.2278 64.4872 99.1115 64.3545 98.9705C64.2218 98.8295 64.0808 98.647 63.9314 98.423L61.9154 95.4114L60.9945 96.295V98.1243C60.9945 98.3732 61.036 98.5599 61.119 98.6843C61.2019 98.8088 61.3139 98.8918 61.455 98.9332C61.596 98.9747 61.7494 98.9954 61.9154 98.9954H62.1768V99.5554H58.3688ZM75.5514 99.6799C74.5724 99.6799 73.7594 99.4891 73.1123 99.1074C72.4652 98.7258 71.9799 98.1949 71.6563 97.5145C71.341 96.826 71.1834 96.0212 71.1834 95.1003C71.1834 94.2043 71.3493 93.4162 71.6812 92.7359C72.0213 92.0473 72.5191 91.5122 73.1745 91.1305C73.8382 90.7407 74.6554 90.5456 75.6261 90.5456C76.2565 90.5456 76.7834 90.6079 77.2065 90.7323C77.6297 90.8568 77.9449 91.0269 78.1523 91.2425C78.368 91.45 78.4759 91.6864 78.4759 91.9519C78.4759 92.2256 78.3555 92.4497 78.115 92.6239C77.8743 92.7898 77.5674 92.8728 77.1941 92.8728C77.1941 92.5907 77.1401 92.3293 77.0323 92.0888C76.9244 91.8399 76.7502 91.6367 76.5097 91.479C76.2773 91.3213 75.9662 91.2425 75.5763 91.2425C74.896 91.2425 74.3484 91.3919 73.9337 91.6905C73.5271 91.9892 73.2284 92.4289 73.0377 93.0097C72.8551 93.5821 72.7639 94.279 72.7639 95.1003C72.7639 95.9216 72.8592 96.6185 73.0501 97.191C73.2492 97.7634 73.5644 98.199 73.9959 98.4976C74.4355 98.788 75.0204 98.9332 75.7505 98.9332C75.9662 98.9332 76.1737 98.9249 76.3728 98.9083C76.5801 98.8834 76.7668 98.8461 76.9328 98.7963V96.8425C76.9328 96.602 76.8871 96.4194 76.7959 96.295C76.7129 96.1705 76.5968 96.0875 76.4474 96.0461C76.3063 96.0047 76.1404 95.9839 75.9497 95.9839H75.875V95.4239H79.2972V95.9839H79.2101C79.0524 95.9839 78.9114 96.0088 78.787 96.0585C78.6625 96.1 78.563 96.1871 78.4883 96.3199C78.4219 96.4443 78.3888 96.6351 78.3888 96.8923V99.0825C77.9573 99.2817 77.5134 99.431 77.0572 99.5305C76.6009 99.6301 76.099 99.6799 75.5514 99.6799ZM80.237 99.5554V98.9954H80.4983C80.6642 98.9954 80.8135 98.9789 80.9463 98.9457C81.0873 98.9042 81.1993 98.8253 81.2823 98.7092C81.3735 98.5931 81.4192 98.4189 81.4192 98.1865V92.0514C81.4192 91.8109 81.3735 91.6324 81.2823 91.5163C81.1993 91.4002 81.0873 91.3255 80.9463 91.2923C80.8135 91.2509 80.6642 91.2301 80.4983 91.2301H80.237V90.6701H83.7712C84.5095 90.6701 85.1193 90.7613 85.6005 90.9439C86.0817 91.1181 86.4384 91.3794 86.6708 91.7279C86.9113 92.0763 87.0317 92.516 87.0317 93.047C87.0317 93.4867 86.9403 93.86 86.7579 94.167C86.5837 94.4657 86.3597 94.7104 86.0859 94.9012C85.8121 95.0838 85.53 95.2289 85.2397 95.3368L86.8823 97.9874C86.9901 98.1616 87.0939 98.311 87.1934 98.4354C87.293 98.5599 87.3925 98.6635 87.4921 98.7465C87.5917 98.8295 87.6953 98.8918 87.8032 98.9332C87.9193 98.9747 88.0397 98.9954 88.1641 98.9954H88.2139V99.5554H87.965C87.5833 99.5554 87.2598 99.543 86.9943 99.5181C86.7371 99.4849 86.5214 99.431 86.3472 99.3563C86.173 99.2733 86.0153 99.1572 85.8743 99.0079C85.7415 98.8585 85.6047 98.6678 85.4637 98.4354L83.8459 95.6479H82.8628V98.1865C82.8628 98.4189 82.9042 98.5931 82.9872 98.7092C83.0784 98.8253 83.1904 98.9042 83.3232 98.9457C83.4642 98.9789 83.6177 98.9954 83.7837 98.9954H84.045V99.5554H80.237ZM83.6841 95.0256C84.1487 95.0256 84.5095 94.9551 84.7668 94.8141C85.0239 94.6731 85.2064 94.4615 85.3143 94.1794C85.4304 93.8973 85.4885 93.5448 85.4885 93.1216C85.4885 92.682 85.4263 92.3293 85.3019 92.0639C85.1857 91.7984 84.9949 91.6075 84.7294 91.4914C84.4639 91.367 84.1113 91.3048 83.6717 91.3048H82.8628V95.0256H83.6841ZM92.8355 99.6799C91.9395 99.6799 91.1929 99.4891 90.5955 99.1074C90.0065 98.7258 89.5669 98.1907 89.2764 97.5021C88.9861 96.8135 88.8409 96.0088 88.8409 95.0879C88.8409 94.167 88.9861 93.3664 89.2764 92.6861C89.5669 92.0058 90.0107 91.479 90.608 91.1057C91.2053 90.724 91.952 90.5332 92.848 90.5332C93.7025 90.5332 94.4243 90.724 95.0133 91.1057C95.6107 91.479 96.0629 92.01 96.3698 92.6985C96.6768 93.3789 96.8302 94.1794 96.8302 95.1003C96.8302 96.0212 96.6727 96.826 96.3573 97.5145C96.0504 98.1949 95.5982 98.7258 95.0009 99.1074C94.4119 99.4891 93.6901 99.6799 92.8355 99.6799ZM92.8355 98.9705C93.2835 98.9705 93.6569 98.8834 93.9555 98.7092C94.2625 98.535 94.5114 98.282 94.7022 97.9501C94.8931 97.6182 95.03 97.2118 95.1129 96.7305C95.2042 96.2493 95.2498 95.706 95.2498 95.1003C95.2498 94.4946 95.2042 93.9554 95.1129 93.4825C95.03 93.0013 94.8931 92.5949 94.7022 92.263C94.5198 91.9229 94.275 91.6698 93.968 91.5039C93.6693 91.3297 93.296 91.2425 92.848 91.2425C92.4083 91.2425 92.0309 91.3297 91.7155 91.5039C91.4087 91.6698 91.1598 91.9229 90.9689 92.263C90.7781 92.5949 90.6371 93.0013 90.5458 93.4825C90.4545 93.9554 90.4089 94.4946 90.4089 95.1003C90.4089 95.706 90.4545 96.2493 90.5458 96.7305C90.6371 97.2118 90.7781 97.6182 90.9689 97.9501C91.1598 98.282 91.4087 98.535 91.7155 98.7092C92.0309 98.8834 92.4042 98.9705 92.8355 98.9705ZM102.367 99.6799C101.695 99.6799 101.118 99.5886 100.637 99.4061C100.156 99.2153 99.7867 98.9124 99.5295 98.4976C99.2723 98.0829 99.1438 97.5353 99.1438 96.855V92.0514C99.1438 91.8109 99.0981 91.6324 99.0069 91.5163C98.9239 91.4002 98.8119 91.3255 98.6709 91.2923C98.5381 91.2509 98.3929 91.2301 98.2353 91.2301H97.9615V90.6701H101.77V91.2301H101.508C101.342 91.2301 101.189 91.2509 101.048 91.2923C100.907 91.3338 100.795 91.4168 100.712 91.5412C100.637 91.6573 100.6 91.844 100.6 92.1012V96.9421C100.6 97.415 100.683 97.7966 100.849 98.087C101.023 98.3691 101.263 98.5764 101.57 98.7092C101.877 98.8336 102.226 98.8959 102.616 98.8959C103.064 98.8959 103.437 98.8171 103.736 98.6594C104.034 98.5018 104.254 98.282 104.395 97.9999C104.545 97.7095 104.619 97.3693 104.619 96.9794V92.0514C104.619 91.8109 104.578 91.6324 104.495 91.5163C104.412 91.4002 104.3 91.3255 104.159 91.2923C104.026 91.2509 103.877 91.2301 103.711 91.2301H103.45V90.6701H106.61V91.2301H106.349C106.183 91.2301 106.03 91.2509 105.889 91.2923C105.748 91.3338 105.636 91.4168 105.553 91.5412C105.47 91.6573 105.428 91.844 105.428 92.1012V97.0043C105.428 97.5602 105.312 98.0372 105.08 98.4354C104.856 98.8336 104.516 99.1406 104.059 99.3563C103.611 99.572 103.047 99.6799 102.367 99.6799ZM107.477 99.5554V98.9954H107.738C107.912 98.9954 108.066 98.9747 108.198 98.9332C108.339 98.8918 108.451 98.8088 108.534 98.6843C108.617 98.5599 108.659 98.3732 108.659 98.1243V92.0514C108.659 91.8109 108.613 91.6324 108.522 91.5163C108.439 91.4002 108.327 91.3255 108.186 91.2923C108.053 91.2509 107.904 91.2301 107.738 91.2301H107.477V90.6701H111.061C112.139 90.6701 112.936 90.9024 113.45 91.367C113.964 91.8315 114.221 92.4704 114.221 93.2834C114.221 93.6568 114.159 94.0135 114.034 94.3537C113.919 94.6855 113.723 94.9842 113.45 95.2496C113.184 95.5151 112.832 95.7267 112.392 95.8843C111.952 96.0337 111.418 96.1083 110.787 96.1083H110.102V98.1865C110.102 98.4189 110.144 98.5931 110.227 98.7092C110.318 98.8253 110.434 98.9042 110.575 98.9457C110.716 98.9789 110.866 98.9954 111.023 98.9954H111.533V99.5554H107.477ZM110.662 95.4861C111.019 95.4861 111.327 95.4488 111.583 95.3741C111.84 95.2911 112.048 95.1666 112.206 95.0008C112.363 94.8265 112.479 94.6025 112.554 94.3288C112.629 94.055 112.666 93.7231 112.666 93.3332C112.666 92.8686 112.608 92.487 112.492 92.1883C112.376 91.8896 112.184 91.6698 111.919 91.5288C111.653 91.3794 111.297 91.3048 110.849 91.3048H110.102V95.4861H110.662Z" fill="white"/>
<path d="M36.7153 113.667V113.382H36.9553C37.0976 113.382 37.2131 113.368 37.302 113.338C37.3968 113.302 37.465 113.234 37.5064 113.133C37.5539 113.032 37.5776 112.881 37.5776 112.68V108.289C37.5776 108.087 37.5539 107.939 37.5064 107.844C37.465 107.744 37.3968 107.679 37.302 107.649C37.2072 107.619 37.0917 107.604 36.9553 107.604H36.7153V107.32H39.0531V107.604H38.8042C38.6679 107.604 38.5523 107.622 38.4576 107.658C38.3628 107.687 38.2917 107.753 38.2442 107.853C38.2028 107.948 38.182 108.099 38.182 108.307V110.173H41.3998V108.307C41.3998 108.099 41.3761 107.948 41.3287 107.853C41.2872 107.753 41.219 107.687 41.1242 107.658C41.0353 107.622 40.9198 107.604 40.7776 107.604H40.5376V107.32H42.8664V107.604H42.6264C42.4901 107.604 42.3746 107.622 42.2798 107.658C42.185 107.687 42.1139 107.753 42.0664 107.853C42.025 107.948 42.0042 108.099 42.0042 108.307V112.698C42.0042 112.899 42.0279 113.05 42.0753 113.151C42.1228 113.245 42.1909 113.308 42.2798 113.338C42.3746 113.368 42.4901 113.382 42.6264 113.382H42.8664V113.667H40.5376V113.382H40.7776C40.9198 113.382 41.0353 113.368 41.1242 113.338C41.219 113.302 41.2872 113.234 41.3287 113.133C41.3761 113.032 41.3998 112.881 41.3998 112.68V110.52H38.182V112.68C38.182 112.881 38.2028 113.032 38.2442 113.133C38.2917 113.234 38.3628 113.302 38.4576 113.338C38.5523 113.368 38.6679 113.382 38.8042 113.382H39.0531V113.667H36.7153ZM47.5004 113.755C46.9019 113.755 46.4041 113.622 46.0071 113.356C45.61 113.089 45.3138 112.712 45.1182 112.227C44.9227 111.734 44.8249 111.151 44.8249 110.476C44.8249 109.8 44.9227 109.222 45.1182 108.742C45.3197 108.256 45.6189 107.883 46.016 107.622C46.4189 107.355 46.9167 107.222 47.5093 107.222C48.1138 107.222 48.6116 107.355 49.0027 107.622C49.3938 107.883 49.6871 108.259 49.8827 108.751C50.0782 109.237 50.176 109.815 50.176 110.484C50.176 111.142 50.0752 111.717 49.8738 112.209C49.6782 112.694 49.3819 113.074 48.9849 113.347C48.5938 113.619 48.0989 113.755 47.5004 113.755ZM47.5004 113.391C47.8678 113.391 48.1789 113.326 48.4338 113.196C48.6886 113.066 48.896 112.876 49.056 112.627C49.216 112.372 49.3316 112.067 49.4027 111.711C49.4797 111.35 49.5182 110.941 49.5182 110.484C49.5182 110.028 49.4827 109.622 49.4116 109.267C49.3404 108.905 49.2249 108.6 49.0649 108.351C48.9108 108.102 48.7063 107.912 48.4516 107.782C48.1967 107.652 47.8827 107.587 47.5093 107.587C47.1597 107.587 46.8544 107.652 46.5938 107.782C46.3389 107.912 46.1286 108.102 45.9627 108.351C45.7967 108.6 45.6722 108.905 45.5893 109.267C45.5122 109.622 45.4738 110.028 45.4738 110.484C45.4738 110.941 45.5122 111.35 45.5893 111.711C45.6722 112.072 45.7967 112.378 45.9627 112.627C46.1286 112.876 46.3389 113.066 46.5938 113.196C46.8486 113.326 47.1508 113.391 47.5004 113.391ZM52.1386 113.667V113.382H52.3786C52.5208 113.382 52.6363 113.368 52.7252 113.338C52.8201 113.302 52.8882 113.234 52.9297 113.133C52.9771 113.032 53.0008 112.881 53.0008 112.68V108.307C53.0008 108.099 52.9771 107.948 52.9297 107.853C52.8882 107.753 52.8201 107.687 52.7252 107.658C52.6363 107.622 52.5208 107.604 52.3786 107.604H52.1386V107.32H54.4586V107.604H54.2274C54.0912 107.604 53.9757 107.619 53.8808 107.649C53.7919 107.679 53.7238 107.744 53.6763 107.844C53.629 107.939 53.6052 108.087 53.6052 108.289V113.32H55.6497C55.8157 113.32 55.946 113.29 56.0408 113.231C56.1357 113.172 56.2008 113.089 56.2363 112.982C56.2779 112.876 56.3046 112.751 56.3163 112.609L56.3874 111.8H56.7163L56.6541 113.667H52.1386ZM58.5872 113.667V113.382H58.8272C58.9694 113.382 59.085 113.368 59.1739 113.338C59.2687 113.302 59.3369 113.234 59.3783 113.133C59.4258 113.032 59.4494 112.881 59.4494 112.68V108.289C59.4494 108.087 59.4258 107.939 59.3783 107.844C59.3369 107.744 59.2687 107.679 59.1739 107.649C59.0791 107.619 58.9636 107.604 58.8272 107.604H58.5872V107.32H61.1472C61.7458 107.32 62.2524 107.45 62.6672 107.711C63.088 107.966 63.405 108.333 63.6183 108.813C63.8317 109.293 63.9383 109.871 63.9383 110.547C63.9383 111.192 63.8376 111.75 63.6361 112.218C63.4347 112.686 63.1264 113.044 62.7117 113.293C62.3028 113.542 61.7872 113.667 61.165 113.667H58.5872ZM60.9961 113.32C61.5236 113.32 61.9561 113.217 62.2939 113.009C62.6317 112.796 62.8806 112.484 63.0406 112.076C63.2064 111.661 63.2894 111.151 63.2894 110.547C63.2894 109.948 63.2064 109.433 63.0406 109C62.8747 108.567 62.6228 108.239 62.285 108.013C61.9531 107.782 61.5264 107.667 61.005 107.667H60.0539V113.32H60.9961ZM65.9126 113.667V113.382H66.1526C66.2948 113.382 66.4103 113.368 66.4992 113.338C66.594 113.302 66.6622 113.234 66.7037 113.133C66.7511 113.032 66.7748 112.881 66.7748 112.68V108.307C66.7748 108.099 66.7511 107.948 66.7037 107.853C66.6622 107.753 66.594 107.687 66.4992 107.658C66.4103 107.622 66.2948 107.604 66.1526 107.604H65.9126V107.32H68.2326V107.604H68.0014C67.8651 107.604 67.7496 107.622 67.6548 107.658C67.56 107.687 67.4889 107.753 67.4414 107.853C67.4 107.948 67.3792 108.099 67.3792 108.307V112.68C67.3792 112.881 67.4 113.032 67.4414 113.133C67.4889 113.234 67.56 113.302 67.6548 113.338C67.7496 113.368 67.8651 113.382 68.0014 113.382H68.2326V113.667H65.9126ZM70.0696 113.667V113.382H70.3096C70.4518 113.382 70.5673 113.368 70.6562 113.338C70.751 113.302 70.8191 113.234 70.8606 113.133C70.908 113.032 70.9318 112.881 70.9318 112.68V108.289C70.9318 108.087 70.908 107.939 70.8606 107.844C70.8191 107.744 70.751 107.679 70.6562 107.649C70.5613 107.619 70.4458 107.604 70.3096 107.604H70.0696V107.32H71.4473L74.7896 112.662V108.289C74.7896 108.087 74.7658 107.939 74.7184 107.844C74.671 107.744 74.5999 107.679 74.5051 107.649C74.4162 107.619 74.3007 107.604 74.1584 107.604H73.9362V107.32H76.034V107.604H75.8029C75.6666 107.604 75.551 107.622 75.4562 107.658C75.3613 107.687 75.2902 107.753 75.2429 107.853C75.2013 107.948 75.1807 108.099 75.1807 108.307V113.667H74.7362L71.3318 108.236V112.68C71.3318 112.881 71.3524 113.032 71.394 113.133C71.4413 113.234 71.5124 113.302 71.6073 113.338C71.7021 113.368 71.8177 113.382 71.954 113.382H72.1851V113.667H70.0696ZM80.8521 113.755C80.1943 113.755 79.6462 113.619 79.2077 113.347C78.7751 113.074 78.4521 112.694 78.2388 112.209C78.0254 111.717 77.9188 111.142 77.9188 110.484C77.9188 109.827 78.0343 109.255 78.2654 108.769C78.4966 108.277 78.8343 107.898 79.2788 107.631C79.7292 107.364 80.2714 107.231 80.9054 107.231C81.3321 107.231 81.6788 107.278 81.9454 107.373C82.2121 107.462 82.4077 107.584 82.5321 107.738C82.6626 107.892 82.7277 108.061 82.7277 108.244C82.7277 108.404 82.6743 108.529 82.5677 108.618C82.467 108.707 82.3426 108.751 82.1943 108.751C82.1943 108.532 82.1529 108.336 82.0699 108.164C81.9929 107.987 81.8566 107.847 81.661 107.747C81.4714 107.64 81.2077 107.587 80.8699 107.587C80.3603 107.587 79.9337 107.702 79.5899 107.933C79.2521 108.159 78.9973 108.487 78.8254 108.92C78.6537 109.347 78.5677 109.868 78.5677 110.484C78.5677 111.089 78.6477 111.608 78.8077 112.04C78.9737 112.472 79.2314 112.804 79.581 113.036C79.9366 113.267 80.4018 113.382 80.9766 113.382C81.1781 113.382 81.3796 113.368 81.581 113.338C81.7826 113.308 81.9514 113.267 82.0877 113.213V111.738C82.0877 111.537 82.064 111.388 82.0166 111.293C81.9692 111.192 81.8981 111.128 81.8032 111.098C81.7143 111.068 81.6018 111.053 81.4654 111.053H81.3143V110.769H83.3499V111.053H83.2521C83.1218 111.053 83.0151 111.071 82.9321 111.107C82.8492 111.137 82.787 111.201 82.7454 111.302C82.7099 111.397 82.6921 111.548 82.6921 111.755V113.391C82.4196 113.516 82.1381 113.608 81.8477 113.667C81.5573 113.726 81.2254 113.755 80.8521 113.755Z" fill="white"/>
</svg>
