<svg width="142" height="140" viewBox="0 0 142 140" fill="none" xmlns="http://www.w3.org/2000/svg">
<path d="M43.3409 124.709C43.3409 124.709 14.2375 112.584 5.62939 77.6478C5.62939 77.6478 12.1879 94.2939 36.1675 109.296V58.5356L45.5953 50.3154V113.817C45.5953 113.817 56.8679 118.544 57.4827 118.338V43.5645L66.5007 35.5187V120.393C66.5007 120.393 76.9533 117.105 78.3879 115.667V30.5867L88.0209 22.5719V110.642C88.0209 110.642 98.1312 102.89 99.5801 100.87C100.318 99.8426 99.5801 13.6117 99.5801 13.6117L108.721 5.92578V90.5537C108.721 90.5537 122.248 76.8258 126.347 48.8769C126.347 48.8769 133.726 95.5269 93.3496 120.393C93.3496 120.393 112.82 119.982 136.185 102.309C136.185 102.309 111.591 139.094 63.6312 131.08C63.6312 131.08 40.4716 136.834 16.082 121.215C16.082 121.215 41.7012 125.942 43.3409 124.709Z" fill="#fff"/>
</svg>
