<?xml version="1.0" standalone="no"?>
<!DOCTYPE svg PUBLIC "-//W3C//DTD SVG 20010904//EN"
 "http://www.w3.org/TR/2001/REC-SVG-20010904/DTD/svg10.dtd">
<svg version="1.0" xmlns="http://www.w3.org/2000/svg"
 width="512.000000pt" height="512.000000pt" viewBox="0 0 512.000000 512.000000"
 preserveAspectRatio="xMidYMid meet">

<g transform="translate(0.000000,512.000000) scale(0.100000,-0.100000)"
fill="rgba(255,255,255,0.4)" stroke="none">
<path d="M2042 4109 c-66 -26 -140 -99 -167 -165 -19 -47 -20 -77 -23 -754 -3
-578 -5 -701 -16 -682 -24 45 -106 119 -162 146 -96 47 -154 53 -286 27 -127
-25 -158 -40 -158 -76 0 -20 245 -1194 295 -1409 60 -265 276 -507 547 -615
136 -54 202 -61 612 -61 204 0 400 5 436 10 292 46 549 234 675 494 24 50 54
125 67 166 22 75 22 78 26 836 l3 761 -22 58 c-61 163 -253 240 -407 164 l-52
-26 0 32 c0 45 -54 148 -97 186 -101 88 -257 102 -359 33 -19 -13 -37 -24 -39
-24 -3 0 -13 17 -24 38 -23 45 -74 93 -134 124 -64 34 -173 32 -249 -4 l-58
-27 0 274 c0 249 -2 279 -20 327 -23 62 -82 125 -150 160 -63 32 -166 35 -238
7z m198 -149 c21 -11 49 -34 62 -52 l23 -33 5 -755 c3 -415 9 -763 14 -773 12
-26 52 -32 81 -13 l25 16 0 373 c0 225 4 387 10 409 6 21 23 52 37 69 76 90
232 75 291 -29 22 -39 22 -44 22 -426 0 -373 1 -387 20 -406 11 -11 29 -20 40
-20 11 0 29 9 40 20 19 19 20 33 20 339 0 202 4 330 11 348 13 34 55 80 91 99
15 8 50 14 78 14 28 0 63 -6 78 -14 36 -19 78 -65 91 -99 7 -18 11 -146 11
-348 0 -306 1 -320 20 -339 25 -25 55 -25 80 0 19 19 20 33 20 235 0 239 5
264 70 318 83 70 225 35 271 -67 18 -39 19 -79 19 -764 0 -615 -2 -734 -16
-800 -19 -99 -97 -257 -164 -339 -95 -115 -253 -216 -405 -260 -51 -14 -118
-17 -443 -21 -411 -4 -472 1 -601 44 -254 85 -459 317 -511 579 -6 33 -70 336
-141 672 -71 337 -129 614 -129 616 0 2 34 10 76 17 59 10 87 11 125 2 95 -22
173 -95 199 -187 6 -22 31 -145 54 -272 44 -237 56 -273 96 -273 10 0 27 8 39
18 l21 17 2 990 c3 898 5 993 19 1020 48 87 159 121 249 75z"/>
</g>
</svg>
