<svg width="40" height="40" viewBox="0 0 40 40" fill="none" xmlns="http://www.w3.org/2000/svg">
<path d="M3.26855 32.8V25.4754C3.26855 23.369 3.66351 21.1788 4.45341 18.9049C5.26725 16.607 6.36832 14.4407 7.75663 12.4061C9.16888 10.3476 10.7487 8.6122 12.496 7.19995L18.528 11.1136C17.1158 13.2439 15.9309 15.47 14.9735 17.7918C14.0399 20.0897 13.5852 22.627 13.6091 25.4036V32.8H3.26855ZM21.4722 32.8V25.4754C21.4722 23.369 21.8672 21.1788 22.6571 18.9049C23.4709 16.607 24.572 14.4407 25.9603 12.4061C27.3725 10.3476 28.9523 8.6122 30.6997 7.19995L36.7317 11.1136C35.3194 13.2439 34.1346 15.47 33.1771 17.7918C32.2436 20.0897 31.7888 22.627 31.8127 25.4036V32.8H21.4722Z" fill="#292929" fill-opacity="0.3"/>
</svg>
